<svg width="2295" height="1392" viewBox="0 0 2295 1392" fill="none" xmlns="http://www.w3.org/2000/svg">
<ellipse cx="1341.19" cy="967.611" rx="421.621" ry="424.39" fill="#009DB3"/>
<path d="M2295 430.919C2295 516.147 2270.46 599.461 2224.47 670.325C2178.49 741.19 2113.13 796.422 2036.66 829.037C1960.19 861.652 1876.05 870.186 1794.87 853.559C1713.7 836.932 1639.13 795.891 1580.6 735.625C1522.08 675.36 1482.22 598.578 1466.07 514.988C1449.92 431.397 1458.21 344.754 1489.89 266.014C1521.56 187.273 1575.2 119.973 1644.02 72.6229C1712.84 25.2729 1793.75 -4.16561e-05 1876.52 0L1876.52 231.543C1838.22 231.543 1800.79 243.236 1768.94 265.144C1737.1 287.052 1712.29 318.19 1697.63 354.621C1682.98 391.053 1679.14 431.141 1686.61 469.816C1694.08 508.491 1712.53 544.016 1739.6 571.9C1766.68 599.783 1801.18 618.772 1838.74 626.465C1876.3 634.158 1915.23 630.209 1950.61 615.119C1985.99 600.029 2016.23 574.474 2037.51 541.687C2058.78 508.9 2070.14 470.352 2070.14 430.919L2295 430.919Z" fill="#00A0B6" fill-opacity="0.22"/>
<ellipse cx="1209.97" cy="94.2815" rx="25.3548" ry="23.7659" fill="#009DB3"/>
<ellipse cx="628.381" cy="434.576" rx="248.32" ry="237.136" fill="#00A0B6" fill-opacity="0.6"/>
<path d="M849.516 838.858C849.516 1065.02 659.345 1248.36 424.758 1248.36C190.171 1248.36 0 1065.02 0 838.858C0 612.695 190.171 429.354 424.758 429.354C659.345 429.354 849.516 612.695 849.516 838.858ZM290.319 838.858C290.319 910.44 350.509 968.469 424.758 968.469C499.007 968.469 559.197 910.44 559.197 838.858C559.197 767.275 499.007 709.246 424.758 709.246C350.509 709.246 290.319 767.275 290.319 838.858Z" fill="#D9D9D9"/>
</svg>
