<svg width="1198" height="163" viewBox="0 0 1198 163" fill="none" xmlns="http://www.w3.org/2000/svg">
<path d="M86.2289 162.8C69.2289 162.8 54.2289 159.3 41.2289 152.3C28.4289 145.3 18.4289 135.7 11.2289 123.5C4.22891 111.3 0.728907 97.3 0.728907 81.5C0.728907 65.7 4.12891 51.7 10.9289 39.5C17.9289 27.3 27.4289 17.8 39.4289 11C51.6289 3.99999 65.3289 0.499992 80.5289 0.499992C95.9289 0.499992 109.529 3.89999 121.329 10.7C133.129 17.5 142.329 27.1 148.929 39.5C155.729 51.7 159.129 66 159.129 82.4C159.129 83.6 159.029 85 158.829 86.6C158.829 88.2 158.729 89.7 158.529 91.1H23.2289V70.4H143.529L131.829 77.6C132.029 67.4 129.929 58.3 125.529 50.3C121.129 42.3 115.029 36.1 107.229 31.7C99.6289 27.1 90.7289 24.8 80.5289 24.8C70.5289 24.8 61.6289 27.1 53.8289 31.7C46.0289 36.1 39.9289 42.4 35.5289 50.6C31.1289 58.6 28.9289 67.8 28.9289 78.2V83C28.9289 93.6 31.3289 103.1 36.1289 111.5C41.1289 119.7 48.0289 126.1 56.8289 130.7C65.6289 135.3 75.7289 137.6 87.1289 137.6C96.5289 137.6 105.029 136 112.629 132.8C120.429 129.6 127.229 124.8 133.029 118.4L148.929 137C141.729 145.4 132.729 151.8 121.929 156.2C111.329 160.6 99.4289 162.8 86.2289 162.8ZM268.42 162.8C252.22 162.8 237.72 159.3 224.92 152.3C212.32 145.3 202.42 135.7 195.22 123.5C188.02 111.3 184.42 97.3 184.42 81.5C184.42 65.7 188.02 51.7 195.22 39.5C202.42 27.3 212.32 17.8 224.92 11C237.72 3.99999 252.22 0.499992 268.42 0.499992C282.82 0.499992 295.62 3.39999 306.82 9.19999C318.22 14.8 327.02 23.2 333.22 34.4L311.32 48.5C306.12 40.7 299.72 35 292.12 31.4C284.72 27.6 276.72 25.7 268.12 25.7C257.72 25.7 248.42 28 240.22 32.6C232.02 37.2 225.52 43.7 220.72 52.1C215.92 60.3 213.52 70.1 213.52 81.5C213.52 92.9 215.92 102.8 220.72 111.2C225.52 119.6 232.02 126.1 240.22 130.7C248.42 135.3 257.72 137.6 268.12 137.6C276.72 137.6 284.72 135.8 292.12 132.2C299.72 128.4 306.12 122.6 311.32 114.8L333.22 128.6C327.02 139.6 318.22 148.1 306.82 154.1C295.62 159.9 282.82 162.8 268.42 162.8ZM437.463 162.8C421.263 162.8 406.763 159.3 393.963 152.3C381.363 145.3 371.463 135.7 364.263 123.5C357.063 111.3 353.463 97.3 353.463 81.5C353.463 65.7 357.063 51.7 364.263 39.5C371.463 27.3 381.363 17.8 393.963 11C406.763 3.99999 421.263 0.499992 437.463 0.499992C451.863 0.499992 464.663 3.39999 475.863 9.19999C487.263 14.8 496.063 23.2 502.263 34.4L480.363 48.5C475.163 40.7 468.763 35 461.163 31.4C453.763 27.6 445.763 25.7 437.163 25.7C426.763 25.7 417.463 28 409.263 32.6C401.063 37.2 394.563 43.7 389.763 52.1C384.963 60.3 382.563 70.1 382.563 81.5C382.563 92.9 384.963 102.8 389.763 111.2C394.563 119.6 401.063 126.1 409.263 130.7C417.463 135.3 426.763 137.6 437.163 137.6C445.763 137.6 453.763 135.8 461.163 132.2C468.763 128.4 475.163 122.6 480.363 114.8L502.263 128.6C496.063 139.6 487.263 148.1 475.863 154.1C464.663 159.9 451.863 162.8 437.463 162.8ZM738.45 0.499992C751.25 0.499992 762.55 2.99999 772.35 7.99998C782.15 13 789.75 20.6 795.15 30.8C800.75 41 803.55 53.9 803.55 69.5V161H774.75V72.8C774.75 57.4 771.15 45.8 763.95 38C756.75 30.2 746.65 26.3 733.65 26.3C724.05 26.3 715.65 28.3 708.45 32.3C701.25 36.3 695.65 42.2 691.65 50C687.85 57.8 685.95 67.5 685.95 79.1V161H657.15V72.8C657.15 57.4 653.55 45.8 646.35 38C639.35 30.2 629.25 26.3 616.05 26.3C606.65 26.3 598.35 28.3 591.15 32.3C583.95 36.3 578.35 42.2 574.35 50C570.35 57.8 568.35 67.5 568.35 79.1V161H539.55V1.99999H567.15V44.3L562.65 33.5C567.65 23.1 575.35 15 585.75 9.19999C596.15 3.39999 608.25 0.499992 622.05 0.499992C637.25 0.499992 650.35 4.29999 661.35 11.9C672.35 19.3 679.55 30.6 682.95 45.8L671.25 41C676.05 28.8 684.45 19 696.45 11.6C708.45 4.19999 722.45 0.499992 738.45 0.499992ZM924.642 162.8C908.642 162.8 894.442 159.3 882.042 152.3C869.642 145.3 859.842 135.7 852.642 123.5C845.442 111.1 841.842 97.1 841.842 81.5C841.842 65.7 845.442 51.7 852.642 39.5C859.842 27.3 869.642 17.8 882.042 11C894.442 3.99999 908.642 0.499992 924.642 0.499992C940.442 0.499992 954.542 3.99999 966.942 11C979.542 17.8 989.342 27.3 996.342 39.5C1003.54 51.5 1007.14 65.5 1007.14 81.5C1007.14 97.3 1003.54 111.3 996.342 123.5C989.342 135.7 979.542 145.3 966.942 152.3C954.542 159.3 940.442 162.8 924.642 162.8ZM924.642 137.6C934.842 137.6 943.942 135.3 951.942 130.7C960.142 126.1 966.542 119.6 971.142 111.2C975.742 102.6 978.042 92.7 978.042 81.5C978.042 70.1 975.742 60.3 971.142 52.1C966.542 43.7 960.142 37.2 951.942 32.6C943.942 28 934.842 25.7 924.642 25.7C914.442 25.7 905.342 28 897.342 32.6C889.342 37.2 882.942 43.7 878.142 52.1C873.342 60.3 870.942 70.1 870.942 81.5C870.942 92.7 873.342 102.6 878.142 111.2C882.942 119.6 889.342 126.1 897.342 130.7C905.342 135.3 914.442 137.6 924.642 137.6ZM1131.87 0.499992C1144.87 0.499992 1156.27 2.99999 1166.07 7.99998C1176.07 13 1183.87 20.6 1189.47 30.8C1195.07 41 1197.87 53.9 1197.87 69.5V161H1169.07V72.8C1169.07 57.4 1165.27 45.8 1157.67 38C1150.27 30.2 1139.77 26.3 1126.17 26.3C1115.97 26.3 1107.07 28.3 1099.47 32.3C1091.87 36.3 1085.97 42.2 1081.77 50C1077.77 57.8 1075.77 67.5 1075.77 79.1V161H1046.97V1.99999H1074.57V44.9L1070.07 33.5C1075.27 23.1 1083.27 15 1094.07 9.19999C1104.87 3.39999 1117.47 0.499992 1131.87 0.499992Z" fill="#32ADE6"/>
</svg>
