<svg width="218" height="218" viewBox="0 0 218 218" fill="none" xmlns="http://www.w3.org/2000/svg">
<path d="M209.728 159.296V203.456C209.728 206.912 206.912 209.728 203.456 209.728H134.08" stroke="#32ADE6" stroke-width="15" stroke-miterlimit="10" stroke-linejoin="round"/>
<path d="M134.08 8H203.456C206.912 8 209.728 10.816 209.728 14.272V83.648" stroke="#32ADE6" stroke-width="15" stroke-miterlimit="10" stroke-linejoin="round"/>
<path d="M8 83.648V14.272C8 10.816 10.8159 8 14.2719 8H83.648" stroke="#32ADE6" stroke-width="15" stroke-miterlimit="10" stroke-linejoin="round"/>
<path d="M8 159.296V203.456C8 206.912 10.8159 209.728 14.2719 209.728H83.648" stroke="#32ADE6" stroke-width="15" stroke-miterlimit="10" stroke-linejoin="round"/>
<path d="M179.864 109.864C179.864 148.524 148.524 179.864 109.864 179.864C71.2041 179.864 39.864 148.524 39.864 109.864C39.864 71.2041 71.2041 39.864 109.864 39.864C148.524 39.864 179.864 71.2041 179.864 109.864ZM72.0883 109.864C72.0883 130.727 89.001 147.64 109.864 147.64C130.727 147.64 147.64 130.727 147.64 109.864C147.64 89.001 130.727 72.0883 109.864 72.0883C89.001 72.0883 72.0883 89.001 72.0883 109.864Z" fill="#D1D1D1"/>
<path d="M139.864 109.864C139.864 126.433 126.433 139.864 109.864 139.864C93.2955 139.864 79.864 126.433 79.864 109.864C79.864 93.2955 93.2955 79.864 109.864 79.864C126.433 79.864 139.864 93.2955 139.864 109.864ZM89.5998 109.864C89.5998 121.056 98.6724 130.128 109.864 130.128C121.056 130.128 130.128 121.056 130.128 109.864C130.128 98.6724 121.056 89.5998 109.864 89.5998C98.6724 89.5998 89.5998 98.6724 89.5998 109.864Z" fill="#D9D9D9"/>
</svg>
